<svg version="1.1" xmlns="http://www.w3.org/2000/svg" xmlns:xlink="http://www.w3.org/1999/xlink" width="546.13720703125" height="300"><defs/><g><g transform="translate(-110,-78) scale(1,1)"><rect fill="#C0C0C0" stroke="none" x="527" y="351" width="120" height="24" opacity="0.2"/></g><g transform="translate(-110,-78) scale(1,1)"><rect fill="#ffffff" stroke="none" x="520" y="344" width="120" height="24"/></g><g transform="translate(-110,-78) scale(1,1)"><path fill="none" stroke="#000000" d="M 520 344 L 640 344 L 640 368 L 520 368 L 520 344 Z Z" stroke-miterlimit="10"/></g><g transform="translate(-110,-78) scale(1,1)"><g><path fill="none" stroke="none"/><text fill="#000000" stroke="none" font-family="Arial" font-size="13px" font-style="normal" font-weight="bold" text-decoration="none" x="551.82275390625" y="363.5">Controller</text></g></g><g transform="translate(-110,-78) scale(1,1)"><rect fill="#C0C0C0" stroke="none" x="319" y="247" width="122.419921875" height="24" opacity="0.2"/></g><g transform="translate(-110,-78) scale(1,1)"><rect fill="#ffffff" stroke="none" x="312" y="240" width="122.419921875" height="24"/></g><g transform="translate(-110,-78) scale(1,1)"><path fill="none" stroke="#000000" d="M 312 240 L 434.419921875 240 L 434.419921875 264 L 312 264 L 312 240 Z Z" stroke-miterlimit="10"/></g><g transform="translate(-110,-78) scale(1,1)"><g><path fill="none" stroke="none"/><text fill="#000000" stroke="none" font-family="Arial" font-size="13px" font-style="normal" font-weight="bold" text-decoration="none" x="355.50634765625" y="259.5">Model</text></g></g><g transform="translate(-110,-78) scale(1,1)"><path fill="none" stroke="#000000" d="M 520 364 L 416 364 M 416 364 A 8 8 0 0 1 408 356 L 408 264" stroke-miterlimit="10"/></g><g transform="translate(-110,-78) scale(1,1)"><path fill="none" stroke="#000000" d="M 412.209517756016 274.16267485762415 L 408 264 L 403.790482243984 274.16267485762415" stroke-miterlimit="10"/></g><g transform="translate(-110,-78) scale(1,1)"><g><path fill="none" stroke="none"/><text fill="#000000" stroke="none" font-family="Arial" font-size="13px" font-style="normal" font-weight="normal" text-decoration="none" x="455" y="357">-model</text></g></g><g transform="translate(-110,-78) scale(1,1)"><rect fill="#C0C0C0" stroke="none" x="527" y="247" width="121.49169921875" height="24" opacity="0.2"/></g><g transform="translate(-110,-78) scale(1,1)"><rect fill="#ffffff" stroke="none" x="520" y="240" width="121.49169921875" height="24"/></g><g transform="translate(-110,-78) scale(1,1)"><path fill="none" stroke="#000000" d="M 520 240 L 641.49169921875 240 L 641.49169921875 264 L 520 264 L 520 240 Z Z" stroke-miterlimit="10"/></g><g transform="translate(-110,-78) scale(1,1)"><g><path fill="none" stroke="none"/><text fill="#000000" stroke="none" font-family="Arial" font-size="13px" font-style="normal" font-weight="bold" text-decoration="none" x="566.6572265625" y="259.5">View</text></g></g><g transform="translate(-110,-78) scale(1,1)"><path fill="none" stroke="#000000" d="M 624 344 L 624 264" stroke-miterlimit="10"/></g><g transform="translate(-110,-78) scale(1,1)"><path fill="none" stroke="#000000" d="M 628.209517756016 274.16267485762415 L 624 264 L 619.790482243984 274.16267485762415" stroke-miterlimit="10"/></g><g transform="translate(-110,-78) scale(1,1)"><g><path fill="none" stroke="none"/><text fill="#000000" stroke="none" font-family="Arial" font-size="13px" font-style="normal" font-weight="normal" text-decoration="none" x="583" y="341">-view</text></g></g><g transform="translate(-110,-78) scale(1,1)"><path fill="none" stroke="#000000" d="M 552 264 L 552 344" stroke-miterlimit="10"/></g><g transform="translate(-110,-78) scale(1,1)"><path fill="none" stroke="#000000" d="M 547.790482243984 333.83732514237585 L 552 344 L 556.209517756016 333.83732514237585" stroke-miterlimit="10"/></g><g transform="translate(-110,-78) scale(1,1)"><g><path fill="none" stroke="none"/><text fill="#000000" stroke="none" font-family="Arial" font-size="13px" font-style="normal" font-weight="normal" text-decoration="none" x="479" y="277">-controller</text></g></g><g transform="translate(-110,-78) scale(1,1)"><rect fill="#C0C0C0" stroke="none" x="319" y="95" width="123.13720703125" height="59" opacity="0.2"/></g><g transform="translate(-110,-78) scale(1,1)"><rect fill="#ffffff" stroke="none" x="312" y="88" width="123.13720703125" height="59"/></g><g transform="translate(-110,-78) scale(1,1)"><path fill="none" stroke="#000000" d="M 312 88 L 435.13720703125 88 L 435.13720703125 147 L 312 147 L 312 88 Z Z" stroke-miterlimit="10"/></g><g transform="translate(-110,-78) scale(1,1)"><path fill="none" stroke="#000000" d="M 312 128 L 435.13720703125 128" stroke-miterlimit="10"/></g><g transform="translate(-110,-78) scale(1,1)"><path fill="none" stroke="#000000" d="M 312 138 L 435.13720703125 138" stroke-miterlimit="10"/></g><g transform="translate(-110,-78) scale(1,1)"><g><path fill="none" stroke="none"/><text fill="#000000" stroke="none" font-family="Arial" font-size="13px" font-style="normal" font-weight="bold" text-decoration="none" x="340.3291015625" y="107.5">Observable</text></g></g><g transform="translate(-110,-78) scale(1,1)"><g><path fill="none" stroke="none"/><text fill="#000000" stroke="none" font-family="Arial" font-size="13px" font-style="normal" font-weight="normal" text-decoration="none" x="316.5" y="122.5">(from JavaReverse)</text></g></g><g transform="translate(-110,-78) scale(1,1)"><path fill="none" stroke="#000000" d="M 373 240 L 373 147" stroke-miterlimit="10"/></g><g transform="translate(-110,-78) scale(1,1)"><path fill="#FFFFFF" stroke="none" d="M 381.419035512032 167.3253497152483 L 373 147 L 364.580964487968 167.3253497152483"/></g><g transform="translate(-110,-78) scale(1,1)"><path fill="none" stroke="#000000" d="M 381.419035512032 167.3253497152483 L 373 147 L 364.580964487968 167.3253497152483 L 381.419035512032 167.3253497152483" stroke-miterlimit="10"/></g><g transform="translate(-110,-78) scale(1,1)"><path fill="#C0C0C0" stroke="none" d="M 580.068603515625 106.5 C 580.068603515625 100.1487248 585.217328315625 95 591.568603515625 95 C 597.919878715625 95 603.068603515625 100.1487248 603.068603515625 106.5 C 603.068603515625 112.8512752 597.919878715625 118 591.568603515625 118 C 585.217328315625 118 580.068603515625 112.8512752 580.068603515625 106.5 Z" opacity="0.2"/></g><g transform="translate(-110,-78) scale(1,1)"><path fill="#ffffff" stroke="none" d="M 573.068603515625 99.5 C 573.068603515625 93.1487248 578.217328315625 88 584.568603515625 88 C 590.919878715625 88 596.068603515625 93.1487248 596.068603515625 99.5 C 596.068603515625 105.8512752 590.919878715625 111 584.568603515625 111 C 578.217328315625 111 573.068603515625 105.8512752 573.068603515625 99.5 Z"/></g><g transform="translate(-110,-78) scale(1,1)"><path fill="none" stroke="#000000" d="M 573.068603515625 99.5 C 573.068603515625 93.1487248 578.217328315625 88 584.568603515625 88 C 590.919878715625 88 596.068603515625 93.1487248 596.068603515625 99.5 C 596.068603515625 105.8512752 590.919878715625 111 584.568603515625 111 C 578.217328315625 111 573.068603515625 105.8512752 573.068603515625 99.5 Z" stroke-miterlimit="10"/></g><g transform="translate(-110,-78) scale(1,1)"><g><path fill="none" stroke="none"/><text fill="#000000" stroke="none" font-family="Arial" font-size="13px" font-style="normal" font-weight="bold" text-decoration="none" x="557.838623046875" y="130.5">Observer</text></g></g><g transform="translate(-110,-78) scale(1,1)"><g><path fill="none" stroke="none"/><text fill="#000000" stroke="none" font-family="Arial" font-size="13px" font-style="normal" font-weight="normal" text-decoration="none" x="527.5" y="145.5">(from JavaReverse)</text></g></g><g transform="translate(-110,-78) scale(1,1)"><path fill="none" stroke="#000000" d="M 584 240 L 584 111" stroke-miterlimit="10"/></g><g transform="translate(-110,-78) scale(1,1)"><rect fill="#C0C0C0" stroke="none" x="127" y="247" width="84.38623046875" height="24" opacity="0.2"/></g><g transform="translate(-110,-78) scale(1,1)"><rect fill="#ffffff" stroke="none" x="120" y="240" width="84.38623046875" height="24"/></g><g transform="translate(-110,-78) scale(1,1)"><path fill="none" stroke="#000000" d="M 120 240 L 204.38623046875 240 L 204.38623046875 264 L 120 264 L 120 240 Z Z" stroke-miterlimit="10"/></g><g transform="translate(-110,-78) scale(1,1)"><g><path fill="none" stroke="none"/><text fill="#000000" stroke="none" font-family="Arial" font-size="13px" font-style="normal" font-weight="bold" text-decoration="none" x="129.328125" y="259.5">Transmitter</text></g></g><g transform="translate(-110,-78) scale(1,1)"><path fill="none" stroke="#000000" d="M 312 252 L 204 252" stroke-miterlimit="10"/></g><g transform="translate(-110,-78) scale(1,1)"><path fill="none" stroke="#000000" d="M 214.16267485762415 247.790482243984 L 204 252 L 214.16267485762415 256.209517756016" stroke-miterlimit="10"/></g><g transform="translate(-110,-78) scale(1,1)"><g><path fill="none" stroke="none"/><text fill="#000000" stroke="none" font-family="Arial" font-size="13px" font-style="normal" font-weight="normal" text-decoration="none" x="240" y="245">-transmitter</text></g></g><g transform="translate(-110,-78) scale(1,1)"><path fill="none" stroke="#000000" d="M 436 118 L 522 118" stroke-miterlimit="10"/></g><g transform="translate(-110,-78) scale(1,1)"><path fill="none" stroke="#000000" d="M 511.83732514237585 122.20951775601598 L 522 118 L 511.83732514237585 113.79048224398402" stroke-miterlimit="10"/></g><g transform="translate(-110,-78) scale(1,1)"><g><path fill="none" stroke="none"/><text fill="#000000" stroke="none" font-family="Arial" font-size="13px" font-style="normal" font-weight="normal" text-decoration="none" x="449" y="110">-observers</text></g></g><g transform="translate(-110,-78) scale(1,1)"><rect fill="#C0C0C0" stroke="none" x="127" y="327" width="143.392578125" height="39" opacity="0.2"/></g><g transform="translate(-110,-78) scale(1,1)"><rect fill="#ffffff" stroke="none" x="120" y="320" width="143.392578125" height="39"/></g><g transform="translate(-110,-78) scale(1,1)"><path fill="none" stroke="#000000" d="M 120 320 L 263.392578125 320 L 263.392578125 359 L 120 359 L 120 320 Z Z" stroke-miterlimit="10"/></g><g transform="translate(-110,-78) scale(1,1)"><g><path fill="none" stroke="none"/><text fill="#000000" stroke="none" font-family="Arial" font-size="13px" font-style="normal" font-weight="bold" text-decoration="none" x="128.8291015625" y="339.5">KieasMessageBuilder</text></g></g><g transform="translate(-110,-78) scale(1,1)"><g><path fill="none" stroke="none"/><text fill="#000000" stroke="none" font-family="Arial" font-size="13px" font-style="normal" font-weight="normal" text-decoration="none" x="147.63720703125" y="354.5">(from common)</text></g></g><g transform="translate(-110,-78) scale(1,1)"><path fill="none" stroke="#000000" d="M 346 264 L 346 331 M 346 331 A 8 8 0 0 1 338 339 L 263 339" stroke-miterlimit="10"/></g><g transform="translate(-110,-78) scale(1,1)"><path fill="none" stroke="#000000" d="M 273.16267485762415 334.790482243984 L 263 339 L 273.16267485762415 343.209517756016" stroke-miterlimit="10"/></g><g transform="translate(-110,-78) scale(1,1)"><g><path fill="none" stroke="none"/><text fill="#000000" stroke="none" font-family="Arial" font-size="13px" font-style="normal" font-weight="normal" text-decoration="none" x="296" y="300">-builder</text></g></g></g></svg>